<svg width="237" height="237" viewBox="0 0 237 237" fill="none" xmlns="http://www.w3.org/2000/svg">
<path d="M118.5 237C183.946 237 237 183.946 237 118.5C237 53.0543 183.946 0 118.5 0C53.0543 0 0 53.0543 0 118.5C0 183.946 53.0543 237 118.5 237Z" fill="#DFF7E7"/>
<mask id="mask0_17_4611" style="mask-type:alpha" maskUnits="userSpaceOnUse" x="0" y="0" width="237" height="237">
<path d="M118.5 237C183.946 237 237 183.946 237 118.5C237 53.0543 183.946 0 118.5 0C53.0543 0 0 53.0543 0 118.5C0 183.946 53.0543 237 118.5 237Z" fill="white"/>
</mask>
<g mask="url(#mask0_17_4611)">
<path d="M153.654 92.1537C156.157 92.1537 158.186 90.1244 158.186 87.6212C158.186 85.118 156.157 83.0888 153.654 83.0888C151.15 83.0888 149.121 85.118 149.121 87.6212C149.121 90.1244 151.15 92.1537 153.654 92.1537Z" fill="#B17DF9" stroke="#202A38" stroke-width="0.710413" stroke-miterlimit="10"/>
<path d="M124.051 81.1638C126.554 81.1638 128.583 79.1345 128.583 76.6313C128.583 74.1281 126.554 72.0989 124.051 72.0989C121.548 72.0989 119.519 74.1281 119.519 76.6313C119.519 79.1345 121.548 81.1638 124.051 81.1638Z" fill="#F48E41" stroke="#202A38" stroke-width="0.710413" stroke-linecap="round" stroke-linejoin="round"/>
<path d="M165.468 57.7486C167.971 57.7486 170 55.7194 170 53.2162C170 50.713 167.971 48.6837 165.468 48.6837C162.965 48.6837 160.936 50.713 160.936 53.2162C160.936 55.7194 162.965 57.7486 165.468 57.7486Z" fill="#3F89FF" stroke="#202A38" stroke-width="0.710413" stroke-linecap="round" stroke-linejoin="round"/>
<path d="M137.885 35.784L131.868 31L120.735 45.0014L126.751 49.7854L137.885 35.784Z" fill="#3F89FF" stroke="#202A38" stroke-width="0.710413" stroke-linecap="round" stroke-linejoin="round"/>
<path d="M102.426 49.5747L97 55.0195L109.671 67.6463L115.097 62.2015L102.426 49.5747Z" fill="#B17DF9" stroke="#202A38" stroke-width="0.710413" stroke-miterlimit="10"/>
<path d="M155.663 57.9284L148.879 54.3149L140.47 70.1034L147.254 73.7169L155.663 57.9284Z" fill="#F48E41" stroke="#202A38" stroke-width="0.710413" stroke-linecap="round" stroke-linejoin="round"/>
<g clip-path="url(#clip0_17_4611)">
<path d="M66.7671 202.345H-19.5836L-36.6299 86.5259H49.7134L66.7671 202.345Z" fill="#F7E8D5" stroke="#202A38" stroke-width="0.741144" stroke-linecap="round" stroke-linejoin="round"/>
<path d="M75.9208 190.293H-10.4224L-27.4688 74.4749H58.8745L75.9208 190.293Z" fill="#ECFCF3" stroke="#202A38" stroke-width="0.741144" stroke-linecap="round" stroke-linejoin="round"/>
<path d="M68.5537 84.925H7.35C6.04836 84.925 4.99316 85.9802 4.99316 87.2819V101.275C4.99316 102.576 6.04836 103.632 7.35 103.632H68.5537C69.8553 103.632 70.9105 102.576 70.9105 101.275V87.2819C70.9105 85.9802 69.8553 84.925 68.5537 84.925Z" fill="#00D563" stroke="#202A38" stroke-width="0.741144" stroke-linecap="round" stroke-linejoin="round"/>
<path d="M116.351 109.294H55.1469C53.8452 109.294 52.79 110.349 52.79 111.651V125.644C52.79 126.945 53.8452 128 55.1469 128H116.351C117.652 128 118.707 126.945 118.707 125.644V111.651C118.707 110.349 117.652 109.294 116.351 109.294Z" fill="#B17DF9" stroke="#202A38" stroke-width="0.741144" stroke-linecap="round" stroke-linejoin="round"/>
<path d="M89.8916 133.663H28.6879C27.3862 133.663 26.3311 134.718 26.3311 136.019V150.012C26.3311 151.314 27.3862 152.369 28.6879 152.369H89.8916C91.1932 152.369 92.2484 151.314 92.2484 150.012V136.019C92.2484 134.718 91.1932 133.663 89.8916 133.663Z" fill="#00D563" stroke="#202A38" stroke-width="0.741144" stroke-linecap="round" stroke-linejoin="round"/>
<path d="M94.9013 158.024H7.79469C6.24745 158.024 4.99316 159.278 4.99316 160.826V173.929C4.99316 175.476 6.24745 176.731 7.79469 176.731H94.9013C96.4486 176.731 97.7029 175.476 97.7029 173.929V160.826C97.7029 159.278 96.4486 158.024 94.9013 158.024Z" fill="#00D563" stroke="#202A38" stroke-width="0.741144" stroke-linecap="round" stroke-linejoin="round"/>
</g>
<path d="M129.668 334.347L145.836 337.262L165.558 270.368L173.555 348.906L190.941 349.009L199.16 206.853L184.686 205.512L186.383 199.744L153.444 197.253L129.668 334.347Z" fill="#EDB59D"/>
<path d="M130.371 245.596C143.104 251.026 145.119 251.789 159.944 253.887L160.126 257.945C160.126 257.945 177.983 262.872 191.388 261.989C202.507 261.26 208.057 257.321 208.057 257.321L202.308 195.306C202.74 182.812 192.662 173.75 179.712 171.795C168.19 170.057 159.569 175.976 153.585 187.872C153.318 188.394 152.529 189.424 152.809 189.467L150.256 195.873L150.244 195.898L130.371 245.596Z" fill="#00D563" stroke="#202A38" stroke-width="0.809375"/>
<path fill-rule="evenodd" clip-rule="evenodd" d="M150.255 195.873L152.809 189.466C151.894 191.45 151.036 193.593 150.255 195.873Z" fill="white"/>
<path d="M158.04 211.583L160.126 257.945" stroke="#202A38" stroke-width="0.809375" stroke-linecap="round" stroke-linejoin="round"/>
<path d="M202.048 236.094L198.306 205.295C196.707 205.283 192.636 204.701 189.146 202.464C185.656 200.227 183.064 194.42 182.204 191.796L172.625 188.823C174.839 201.678 178.856 226.315 179.205 228.197C179.963 232.282 180.8 232.776 182.025 233.458C182.931 233.963 185.825 234.795 188.233 235.159C193.675 235.98 199.743 236.224 202.048 236.094Z" stroke="#202A38" stroke-width="0.809375" stroke-linejoin="round"/>
<path d="M155.961 183.505C155.947 183.827 156.195 184.666 157.305 185.447C158.415 186.229 158.006 187.583 157.663 188.162L142.313 223.089L140.252 220.475" stroke="#202A38" stroke-width="0.809375" stroke-linejoin="round"/>
<path fill-rule="evenodd" clip-rule="evenodd" d="M159.243 117.699C160.75 115.459 163.062 113.917 165.67 113.412C166.778 113.197 167.902 113.177 168.994 113.342C169.797 113.463 170.584 113.684 171.336 114.001C172.036 114.003 172.742 114.056 173.448 114.163C174.162 114.27 174.878 114.433 175.588 114.653L202.696 123.117C204.538 123.702 206.186 124.622 207.596 125.793C208.485 126.325 209.306 127.007 210.024 127.838L236.435 159.728C237.176 160.62 237.76 161.637 238.156 162.736C239.634 166.779 238.47 171.351 235.245 174.173L235.223 174.199C230.974 177.863 224.648 177.349 221.069 173.05L214.861 165.545L206.024 154.875L198.229 168.254L196.979 170.405C196.738 170.751 196.485 171.085 196.22 171.406C198.881 177.962 199.456 185.993 197.325 194.088L196.271 193.805C192.363 201.725 181.05 205.835 169.167 203.138C155.808 200.106 146.77 189.608 149 179.697L149.19 179.74C150.825 174.307 153.512 169.559 156.858 165.789C155.788 164.309 154.984 162.634 154.495 160.847L152.467 163.869C149.335 168.526 143.116 169.735 138.577 166.565C134.045 163.352 132.912 156.994 136.035 152.306L159.243 117.699Z" fill="white"/>
<path fill-rule="evenodd" clip-rule="evenodd" d="M159.243 117.699C160.75 115.459 163.062 113.917 165.67 113.412C166.778 113.197 167.902 113.177 168.994 113.342C169.797 113.463 170.584 113.684 171.336 114.001C172.036 114.003 172.742 114.056 173.448 114.163C174.162 114.27 174.878 114.433 175.588 114.653L202.696 123.117C204.538 123.702 206.186 124.622 207.596 125.793C208.485 126.325 209.306 127.007 210.024 127.838L236.435 159.728C237.176 160.62 237.76 161.637 238.156 162.736C239.634 166.779 238.47 171.351 235.245 174.173L235.223 174.199C230.974 177.863 224.648 177.349 221.069 173.05L214.861 165.545L206.024 154.875L198.229 168.254L196.979 170.405C196.738 170.751 196.485 171.085 196.22 171.406C198.881 177.962 199.456 185.993 197.325 194.088L196.271 193.805C192.363 201.725 181.05 205.835 169.167 203.138C155.808 200.106 146.77 189.608 149 179.697L149.19 179.74C150.825 174.307 153.512 169.559 156.858 165.789C155.788 164.309 154.984 162.634 154.495 160.847L152.467 163.869C149.335 168.526 143.116 169.735 138.577 166.565C134.045 163.352 132.912 156.994 136.035 152.306L159.243 117.699Z" fill="url(#paint0_linear_17_4611)"/>
<path fill-rule="evenodd" clip-rule="evenodd" d="M137.633 165.505C141.862 168.995 147.525 168.567 150.225 164.561C152.919 160.545 151.661 154.399 147.44 150.909L116.038 124.951C115.63 124.613 115.201 124.314 114.766 124.047C114.8 123.716 114.819 123.374 114.821 123.031C114.85 119.856 113.712 116.873 111.757 114.59C111.803 114.446 111.833 114.3 111.857 114.144C111.882 113.979 111.898 113.815 111.899 113.646L112.091 92.6337C112.101 90.7809 110.651 89.27 108.834 89.2636L108.809 89.2682C108.81 89.26 108.81 89.26 108.802 89.2587C106.993 89.2625 105.506 90.759 105.496 92.62L105.404 102.884L103.845 95.3157C103.471 93.5058 101.73 92.3536 99.9606 92.7402C98.1901 93.1358 97.0532 94.92 97.4269 96.729L99.6445 107.526L96.9125 106.157C96.4853 105.951 96.018 105.847 95.5439 105.843C95.4295 105.841 95.3218 105.85 95.2128 105.867C94.5127 105.788 93.8113 105.933 93.2095 106.287L84.4453 111.315C82.8713 112.253 82.3077 114.306 83.1941 115.918C84.0966 117.531 86.1083 118.086 87.6889 117.158L95.2138 112.857C95.4273 112.738 96.6961 113.467 97.5061 113.933C97.8153 114.111 98.0577 114.25 98.149 114.289C99.5769 114.916 100.752 116.025 101.49 117.429C102.215 118.754 102.387 120.325 101.954 121.785C100.91 124.959 97.19 126.176 94.2712 125.937C91.3576 125.698 89.6398 123.203 88.0634 120.914C87.7893 120.516 87.5195 120.124 87.2484 119.751C86.4121 118.568 84.9243 118.067 83.5541 118.522C82.1917 118.98 81.2653 120.291 81.2659 121.751C81.2555 122.471 81.4767 123.175 81.8974 123.75C82.5098 124.591 83.1036 125.521 83.7093 126.468C85.2225 128.837 86.8101 131.321 88.949 132.836C91.9439 134.957 95.2303 136.612 98.9639 136.713C100.456 136.754 101.965 136.57 103.44 136.181C104.127 137.433 105.057 138.59 106.214 139.545L137.633 165.505ZM238.198 163.733C240.141 167.687 238.816 172.521 235.136 174.901C234.927 175.04 234.716 175.165 234.493 175.283L231.149 177.032L201.516 192.518L205.968 205.009C206.606 206.816 205.695 208.821 203.927 209.499C203.732 209.569 203.533 209.625 203.331 209.666L203.749 210.818C204.387 212.626 203.473 214.631 201.703 215.306C199.938 215.972 197.959 215.311 197.315 213.508L192.514 199.19L198.065 215.755C198.638 217.58 197.411 219.778 195.622 220.377C193.825 220.971 191.905 219.974 191.325 218.146C191.195 217.735 190.961 216.973 190.652 215.966C188.917 210.321 184.821 196.995 183.605 194.961C182.215 192.639 180.731 193.172 178.874 193.839C178.425 194.001 177.954 194.17 177.458 194.308L169.125 197.097C167.34 197.686 165.435 196.693 164.864 194.875C164.293 193.058 165.271 191.102 167.051 190.499C168.163 190.123 169.295 189.772 170.428 189.42C172.634 188.735 174.848 188.048 176.943 187.166C178.424 186.544 179.739 185.45 181.062 184.35C181.823 183.716 182.587 183.081 183.387 182.532C183.696 182.319 184.028 182.086 184.378 181.84C187.023 179.982 190.728 177.379 193.886 177.167L214.742 166.268L226.875 159.927C230.942 157.807 235.9 159.375 238.051 163.46C238.086 163.519 238.119 163.58 238.148 163.642L238.198 163.733Z" fill="#EDB59D"/>
<path fill-rule="evenodd" clip-rule="evenodd" d="M105.602 102.636C105.821 102.589 106.036 102.728 106.083 102.947L107.919 111.494C107.966 111.712 107.827 111.927 107.609 111.974C107.39 112.021 107.175 111.882 107.128 111.664L105.292 103.117C105.245 102.898 105.384 102.683 105.602 102.636ZM95.2821 109.497C95.2007 109.289 94.966 109.186 94.7579 109.267C94.5497 109.349 94.4469 109.584 94.5282 109.792L94.9515 110.875L94.9538 112.479C94.9541 112.702 95.1355 112.883 95.359 112.883C95.5825 112.883 95.7635 112.701 95.7631 112.478L95.7607 110.798C95.7607 110.747 95.7513 110.698 95.733 110.651L95.2821 109.497ZM199.432 197.654C199.686 197.568 199.962 197.704 200.048 197.958L203.895 209.305C203.981 209.559 203.845 209.835 203.591 209.921C203.337 210.007 203.061 209.871 202.975 209.617L199.128 198.27C199.042 198.016 199.178 197.74 199.432 197.654ZM192.268 198.386C192.523 198.301 192.798 198.437 192.883 198.692L198.042 214.06C198.128 214.314 197.991 214.589 197.736 214.675C197.482 214.76 197.207 214.623 197.121 214.369L191.963 199.001C191.877 198.747 192.014 198.471 192.268 198.386ZM99.7858 107.077C99.6017 106.95 99.3497 106.997 99.223 107.181C99.0964 107.365 99.1429 107.617 99.3271 107.744L100.382 108.469L106.8 113.768C106.972 113.91 107.227 113.886 107.37 113.713C107.512 113.541 107.488 113.286 107.315 113.143L100.883 107.834C100.874 107.827 100.865 107.819 100.855 107.813L99.7858 107.077Z" fill="#202A38"/>
<path d="M198.067 175.007C204.385 177.264 206.87 183.404 206.21 190.08L214.906 185.467C215.258 182.31 214.548 178.451 212.865 175.758C210.98 172.65 209.146 171.598 206.241 170.682L198.067 175.007Z" fill="#202A38"/>
<path d="M202.278 177.517C201.706 181.312 204.248 184.842 207.959 185.402C211.67 185.962 215.141 183.339 215.714 179.545C216.287 175.75 213.743 172.22 210.033 171.66C206.322 171.1 202.851 173.722 202.278 177.517Z" fill="#00D563" stroke="#202A38" stroke-width="0.809375" stroke-linecap="round" stroke-linejoin="round"/>
<path d="M207.938 181.844L209.943 177.754L213.6 180" stroke="#202A38" stroke-width="0.809375" stroke-linecap="round" stroke-linejoin="round"/>
<path fill-rule="evenodd" clip-rule="evenodd" d="M158.211 130.495C158.235 130.273 158.075 130.073 157.853 130.049C157.631 130.024 157.431 130.184 157.406 130.406L154.002 161.156C153.978 161.378 154.138 161.578 154.36 161.602C154.582 161.627 154.782 161.467 154.807 161.245L158.211 130.495ZM197.635 143.264C197.492 143.092 197.237 143.068 197.065 143.211C196.893 143.353 196.869 143.608 197.011 143.781L207.9 156.929C208.043 157.101 208.298 157.125 208.47 156.983C208.642 156.84 208.666 156.585 208.524 156.413L197.635 143.264Z" fill="#202A38"/>
<path d="M204.017 101.513C203.818 103.174 202.276 104.365 200.57 104.169L198.071 103.868L197.846 105.814C197.439 109.262 195.236 112.06 192.273 113.372L191.038 118.981C190.36 122.062 187.566 124.024 184.784 123.383L184.475 123.314C181.694 122.666 179.979 119.642 180.643 116.56L180.647 116.537L181.686 111.82C179.389 109.836 178.09 106.784 178.464 103.55L178.693 101.575L176.344 101.297C174.639 101.093 173.413 99.5751 173.603 97.9131C173.801 96.2439 175.336 95.0599 177.043 95.2565L179.391 95.5341L179.458 94.9966C180.066 89.8032 184.771 86.0811 189.964 86.6889L189.979 86.6912L190.554 86.7635C195.741 87.3704 199.448 92.0734 198.848 97.2596L198.784 97.8295L201.276 98.1218C202.982 98.326 204.208 99.8437 204.017 101.513Z" fill="#EDB59D"/>
<path d="M190.074 105.095L186.736 104.24C186.736 104.24 189.035 100.137 189.759 98.676" stroke="#202A38" stroke-width="0.809375" stroke-linecap="round" stroke-linejoin="round"/>
<path d="M186.311 98.8252C186.255 98.1323 185.686 97.5803 184.976 97.5317C184.266 97.4847 183.632 97.9549 183.489 98.6354" stroke="#202A38" stroke-width="0.809375" stroke-linecap="round" stroke-linejoin="round"/>
<path d="M195.845 99.7824C195.832 99.1354 195.353 98.5855 194.702 98.4697C194.05 98.3531 193.41 98.7035 193.173 99.3059" stroke="#202A38" stroke-width="0.809375" stroke-linecap="round" stroke-linejoin="round"/>
<path d="M190.628 111.044C189.262 111.451 187.725 110.605 186.716 109.661C185.707 108.716 184.437 106.421 184.437 106.421C186.975 108.128 191.104 108.217 193.763 106.065C193.589 107.08 193.378 108.107 192.9 109.023C192.423 109.938 191.637 110.744 190.628 111.044Z" fill="white"/>
<path d="M190.628 111.044C189.262 111.451 187.725 110.605 186.716 109.661C185.707 108.716 184.437 106.421 184.437 106.421C186.975 108.128 191.104 108.217 193.763 106.065C193.589 107.08 193.378 108.107 192.9 109.023C192.423 109.938 191.637 110.744 190.628 111.044Z" fill="url(#paint1_linear_17_4611)"/>
<path d="M190.628 111.044C189.262 111.451 187.725 110.605 186.716 109.661C185.707 108.716 184.437 106.421 184.437 106.421C186.975 108.128 191.104 108.217 193.763 106.065C193.589 107.08 193.378 108.107 192.9 109.023C192.423 109.938 191.637 110.744 190.628 111.044Z" stroke="#202A38" stroke-width="0.809375" stroke-linejoin="round"/>
<path d="M185.773 95.1297C184.716 95.0053 183.661 95.3418 182.887 96.0482" stroke="#202A38" stroke-width="0.809375" stroke-linecap="round" stroke-linejoin="round"/>
<path d="M197.066 96.7753C196.563 96.2074 195.889 95.8088 195.143 95.6359" stroke="#202A38" stroke-width="0.809375" stroke-linecap="round" stroke-linejoin="round"/>
<path d="M201.109 72.4118C205.637 73.0952 208.76 77.282 208.084 81.7627C207.791 83.7044 206.832 85.3827 205.472 86.6058C205.342 86.7228 205.208 86.8355 205.071 86.9439C204.431 87.4499 203.716 87.8616 202.949 88.162L202.612 88.2857L202.361 88.3673L202.02 88.4642L201.738 88.5326C201.528 88.5798 201.315 88.619 201.099 88.6498L200.883 88.678C200.624 88.7082 200.362 88.7263 200.097 88.7319C200.244 88.9759 200.384 89.227 200.515 89.4829C200.594 89.6394 200.671 89.7978 200.745 89.9578L200.842 90.1762C201.083 90.7288 201.284 91.3004 201.442 91.887C201.511 92.1471 201.573 92.4104 201.626 92.6763C201.696 93.0277 201.751 93.3841 201.79 93.7442C201.809 93.9233 201.824 94.103 201.836 94.2836C201.89 95.1394 201.855 96.014 201.722 96.8961L201.709 96.9702L201.67 97.1599C201.628 97.3712 201.594 97.5178 201.565 97.6093L201.555 97.6391L201.422 98.1413C201.405 98.2032 201.387 98.2672 201.369 98.3332L198.213 97.8144L198.583 95.3574L198.499 95.3449C197.569 95.1999 196.691 94.9641 195.871 94.6436L195.626 94.5449C193.283 93.5673 191.43 91.888 190.192 89.7719C187.737 92.0671 184.358 93.2108 180.538 92.6342L180.219 92.5821L180.214 92.5853L179.741 95.7146L176.479 95.2223L176.542 94.6895C176.665 93.6698 176.783 92.9255 176.897 92.4565C177.197 91.2157 177.782 89.9571 178.592 88.7745C178.685 88.6092 178.779 88.4489 178.876 88.2929L179.052 88.0154L179.298 87.6535L179.497 87.3778L179.839 86.9425L180.005 86.744L180.103 86.6323C180.442 86.2482 180.796 85.9008 181.16 85.5868L181.432 85.3601L181.704 85.1487L181.963 84.9596L182.073 84.8825C182.176 84.8121 182.278 84.7442 182.382 84.6784L182.632 84.5235L182.923 84.3553L183.245 84.183L183.273 84.1687C183.568 84.0183 183.867 83.8833 184.167 83.7626L184.41 83.6678L184.688 83.5675C184.92 83.4868 185.153 83.4142 185.386 83.3491L185.581 83.296L185.87 83.2241L186.149 83.161L186.437 83.1029C187.953 82.6876 189.565 82.5564 191.211 82.8048C191.467 82.8434 191.719 82.8894 191.969 82.9425C191.606 81.7967 191.494 80.5541 191.685 79.288C191.877 78.0187 192.353 76.8618 193.04 75.8711L193.163 75.6975L193.291 75.5279L193.423 75.3624L193.515 75.2517L193.682 75.0598L193.757 74.9778C193.813 74.917 193.87 74.8571 193.928 74.798C194.02 74.7044 194.114 74.613 194.211 74.524C194.498 74.2586 194.803 74.0138 195.125 73.7915L195.3 73.6731C196.007 73.2104 196.787 72.854 197.614 72.6229L197.881 72.5532C198.279 72.4559 198.687 72.3876 199.103 72.3503L199.322 72.3337C199.687 72.3105 200.058 72.3113 200.432 72.3373L200.657 72.3559C200.807 72.3704 200.958 72.389 201.109 72.4118Z" fill="#00D563"/>
<path d="M201.105 77.5382C200.739 77.0763 200.919 76.3408 201.38 75.9755C201.871 75.6339 202.489 75.5205 203.072 75.6649C204.201 75.886 205.132 76.6763 205.525 77.7472C205.89 78.833 205.583 80.0283 204.74 80.8056C203.853 81.5796 202.557 81.7045 201.378 81.5696C200.664 81.4968 199.968 81.3054 199.318 81.0049C197.109 79.9336 196.051 77.0195 197.072 74.8067C197.549 73.7722 198.442 72.9779 199.489 72.5235" stroke="white" stroke-width="0.809375" stroke-linecap="round"/>
<path fill-rule="evenodd" clip-rule="evenodd" d="M183.238 85.7804C183.234 85.7827 183.228 85.7841 183.222 85.7863C182.791 85.9558 182.579 86.4432 182.749 86.8747L184.091 90.288C184.258 90.713 184.735 90.9266 185.164 90.7682L185.203 90.7543C185.208 90.752 185.213 90.7498 185.219 90.7476C185.651 90.5774 185.863 90.0908 185.692 89.6584L184.351 86.246C184.184 85.8202 183.706 85.6073 183.278 85.7658L183.238 85.7804Z" stroke="white" stroke-width="0.809375"/>
<path d="M188.844 86.5C189.34 88.7883 190.675 90.8114 192.593 92.1797" stroke="white" stroke-width="0.809375" stroke-linecap="round"/>
<path d="M185.685 113.553C187.025 113.885 188.203 114.026 189.219 113.978C191.074 113.889 192.522 112.937 192.522 112.937" stroke="#202A38" stroke-width="0.809375" stroke-linecap="round" stroke-linejoin="round"/>
</g>
<defs>
<linearGradient id="paint0_linear_17_4611" x1="193.353" y1="117.018" x2="180.093" y2="204.879" gradientUnits="userSpaceOnUse">
<stop stop-color="white"/>
<stop offset="1" stop-color="white" stop-opacity="0"/>
</linearGradient>
<linearGradient id="paint1_linear_17_4611" x1="189.23" y1="105.381" x2="188.389" y2="110.956" gradientUnits="userSpaceOnUse">
<stop stop-color="white"/>
<stop offset="1" stop-color="white" stop-opacity="0"/>
</linearGradient>
<clipPath id="clip0_17_4611">
<rect width="177" height="128.611" fill="white" transform="translate(-37 74.1044)"/>
</clipPath>
</defs>
</svg>
