<svg width="14" height="7" viewBox="0 0 14 7" fill="none" xmlns="http://www.w3.org/2000/svg">
    <path d="M13.7694 0.360091C13.6853 0.258978 13.5821 0.175445 13.4656 0.114274C13.3492 0.0531036 13.2219 0.0154966 13.0909 0.00360699C12.9599 -0.00828266 12.8279 0.00577845 12.7024 0.044985C12.5768 0.0841916 12.4603 0.147774 12.3594 0.232091L7.00035 4.70009L1.64135 0.232091C1.5405 0.147913 1.42405 0.0844252 1.29866 0.0452511C1.17327 0.006077 1.04139 -0.00801582 0.91055 0.00377722C0.779712 0.0155703 0.652478 0.0530186 0.536113 0.113983C0.419748 0.174948 0.31653 0.258236 0.232352 0.359091C0.148175 0.459946 0.084687 0.576393 0.0455129 0.701785C0.00633883 0.827176 -0.00775399 0.959056 0.00403905 1.08989C0.0158321 1.22073 0.05328 1.34797 0.114245 1.46433C0.17521 1.5807 0.258497 1.68391 0.359352 1.76809L6.35935 6.76809C6.53919 6.91828 6.76605 7.00055 7.00035 7.00055C7.23465 7.00055 7.46152 6.91828 7.64135 6.76809L13.6414 1.76809C13.845 1.59831 13.9728 1.35462 13.9968 1.09059C14.0208 0.826562 13.939 0.563808 13.7694 0.360091Z" fill="#121212" />
</svg>