<svg width="159" height="73" viewBox="0 0 159 73" fill="none" xmlns="http://www.w3.org/2000/svg">
<path d="M90.4238 50.5635V69.2787H157.397V50.5635H90.4238Z" fill="white" stroke="#202A38" stroke-linecap="round" stroke-linejoin="round"/>
<path d="M66.2139 50.5635V69.2787H133.187V50.5635H66.2139Z" fill="#00D563" stroke="#202A38" stroke-linecap="round" stroke-linejoin="round"/>
<path d="M147.335 55.8132H133.658H147.335Z" fill="white"/>
<path d="M147.335 55.8132H133.658" stroke="#202A38" stroke-linecap="round" stroke-linejoin="round"/>
<path d="M142.933 60.5454H157.084H142.933Z" fill="white"/>
<path d="M142.933 60.5454H157.084" stroke="#202A38" stroke-linecap="round" stroke-linejoin="round"/>
<path d="M142.619 64.5999H133.5H142.619Z" fill="white"/>
<path d="M142.619 64.5999H133.5" stroke="#202A38" stroke-linecap="round" stroke-linejoin="round"/>
<path d="M77.369 64.9137C74.8072 64.9137 72.7305 62.8533 72.7305 60.3117C72.7305 57.7701 74.8072 55.7097 77.369 55.7097C79.9309 55.7097 82.0076 57.7701 82.0076 60.3117C82.0076 62.8533 79.9309 64.9137 77.369 64.9137Z" fill="white"/>
<path d="M90.8964 57.0388C89.1129 57.0388 87.667 58.4847 87.667 60.2682C87.667 62.0518 89.1129 63.4976 90.8964 63.4976H122.822C124.606 63.4976 126.051 62.0518 126.051 60.2682C126.051 58.4847 124.606 57.0388 122.822 57.0388H90.8964Z" fill="white"/>
<path d="M133.113 52.1396V33.4244L66.14 33.4244V52.1396L133.113 52.1396Z" fill="white" stroke="#202A38" stroke-linecap="round" stroke-linejoin="round"/>
<path d="M157.322 52.1396V33.4244L90.349 33.4244V52.1396L157.322 52.1396Z" fill="#00D563" stroke="#202A38" stroke-linecap="round" stroke-linejoin="round"/>
<path d="M76.2012 38.6743H89.8779H76.2012Z" fill="white"/>
<path d="M76.2012 38.6743H89.8779" stroke="#202A38" stroke-linecap="round" stroke-linejoin="round"/>
<path d="M80.6041 43.4033H66.4561H80.6041Z" fill="white"/>
<path d="M80.6041 43.4033H66.4561" stroke="#202A38" stroke-linecap="round" stroke-linejoin="round"/>
<path d="M80.917 47.4609H90.0359H80.917Z" fill="white"/>
<path d="M80.917 47.4609H90.0359" stroke="#202A38" stroke-linecap="round" stroke-linejoin="round"/>
<path d="M146.167 47.7714C143.605 47.7714 141.528 45.711 141.528 43.1694C141.528 40.6278 143.605 38.5674 146.167 38.5674C148.729 38.5674 150.805 40.6278 150.805 43.1694C150.805 45.711 148.729 47.7714 146.167 47.7714Z" fill="white"/>
<path d="M132.644 46.3589C134.427 46.3589 135.873 44.913 135.873 43.1295C135.873 41.3459 134.427 39.9001 132.644 39.9001L100.718 39.9001C98.9345 39.9001 97.4886 41.3459 97.4886 43.1295C97.4886 44.913 98.9345 46.3589 100.718 46.3589L132.644 46.3589Z" fill="white"/>
<path d="M118.632 32.7665C109.831 32.7665 102.696 25.6882 102.696 16.9567C102.696 8.22525 109.831 1.14697 118.632 1.14697C127.433 1.14697 134.567 8.22525 134.567 16.9567C134.567 25.6882 127.433 32.7665 118.632 32.7665Z" fill="white" stroke="#202A38" stroke-linecap="round" stroke-linejoin="round"/>
<path d="M0.648438 56.3821L11.7471 71.5153L85.478 18.291L74.3794 3.15777L0.648438 56.3821Z" fill="white" stroke="#202A38" stroke-linecap="round" stroke-linejoin="round"/>
<path d="M130.754 24.0835C124.431 24.0835 119.306 18.9984 119.306 12.7255C119.306 6.45261 124.431 1.36743 130.754 1.36743C137.077 1.36743 142.202 6.45261 142.202 12.7255C142.202 18.9984 137.077 24.0835 130.754 24.0835Z" fill="#00D563"/>
</svg>
